<svg height="108" viewBox="0 0 512 512" width="108" xmlns="http://www.w3.org/2000/svg"><path d="M226.484 31.024H32.394C14.503 31.024 0 45.528 0 63.418v161.081c0 17.75 14.278 32.158 31.974 32.383v.01L41 262h51.5l12.083-5.107h121.898c17.891 0 32.394-14.503 32.394-32.394V63.418c0-17.889-14.502-32.392-32.391-32.394z" fill="#6b61b1"/><path d="M288.561 31.024h-64.955c17.891 0 32.394 14.503 32.394 32.394v161.081c0 17.891-14.503 32.394-32.394 32.394h64.955c17.891 0 32.394-14.503 32.394-32.394V63.418c0-17.89-14.503-32.394-32.394-32.394zM31.974 332.142c0 4.72 5.957 6.789 8.883 3.085l57.983-73.406a12.963 12.963 0 0 1 10.172-4.928H31.974z" fill="#5e54ac"/><path d="M398.46 394.467l11.636 14.732c1.997-.074 3.617-1.593 3.879-3.574 1.169-8.851 6.81-16.466 15.067-20.35 12.638-5.945 21.387-18.789 21.387-33.681V166.556c0-20.551-16.66-37.212-37.212-37.212H180.52c-20.552 0-37.212 16.66-37.212 37.212v185.038c0 20.552 16.66 37.212 37.212 37.212h206.253c4.558 0 8.863 2.086 11.687 5.661z" fill="#e49542"/><path d="M474.788 129.344h-65.174c20.551 0 37.212 16.66 37.212 37.212v185.038c0 14.892-8.749 27.736-21.387 33.681-9.31 4.379-15.342 13.636-15.342 23.923l54.97 69.592c3.361 4.255 10.204 1.878 10.204-3.544v-86.453c20.328-.259 36.73-16.81 36.73-37.2V166.556c-.001-20.552-16.661-37.212-37.213-37.212z" fill="#e27d47"/><path d="M450.246 204.642H205.063a7.726 7.726 0 1 1 0-15.452h245.183a7.726 7.726 0 1 1 0 15.452zm0 59.064H205.063a7.726 7.726 0 1 1 0-15.452h245.183a7.726 7.726 0 1 1 0 15.452zm0 59.063H205.063a7.726 7.726 0 1 1 0-15.452h245.183a7.726 7.726 0 1 1 0 15.452z" fill="#f0f7ff"/></svg>