<svg height="108" viewBox="0 -8 423.38 423" width="108" xmlns="http://www.w3.org/2000/svg"><path d="M423.379 260.41v26.7c0 16.156-13.094 29.25-29.25 29.25H29.25C13.094 316.36 0 303.265 0 287.11v-26.7zm0 0" fill="#e48e66"/><path d="M353.512 130.3c-.008 9.114 6.426 16.958 15.363 18.743a19.103 19.103 0 0 0 21.379-11.414c3.488-8.418.55-18.129-7.024-23.195-7.574-5.063-17.675-4.075-24.12 2.367a19.01 19.01 0 0 0-5.598 13.5zm-4.282-73.472a19.084 19.084 0 0 0 36.715 7.313c3.489-8.41.543-18.114-7.027-23.172-7.57-5.063-17.66-4.067-24.098 2.37a19.005 19.005 0 0 0-5.59 13.49zm0 146.942a19.08 19.08 0 0 0 15.364 18.714 19.087 19.087 0 0 0 14.324-34.59c-7.57-5.054-17.66-4.062-24.098 2.376a19.009 19.009 0 0 0-5.59 13.5zM69.871 130.3c.004-9.113-6.43-16.96-15.363-18.741a19.1 19.1 0 0 0-14.355 34.605 19.096 19.096 0 0 0 24.117-2.363 19.03 19.03 0 0 0 5.601-13.5zm4.277 73.47a19.081 19.081 0 0 0-15.355-18.723c-8.93-1.777-17.875 3-21.36 11.41-3.484 8.414-.542 18.117 7.028 23.176a19.085 19.085 0 0 0 24.098-2.371 19.007 19.007 0 0 0 5.59-13.492zm0-146.942a19.078 19.078 0 0 0-15.363-18.71 19.076 19.076 0 0 0-21.351 11.417 19.08 19.08 0 0 0 7.027 23.168 19.08 19.08 0 0 0 24.098-2.375 18.986 18.986 0 0 0 5.59-13.5zm349.23-27.387v230.97H0V29.44C0 13.285 13.094.188 29.25.191h364.879c16.156-.003 29.25 13.094 29.25 29.25zm0 0" fill="#f8ec7d"/><path d="M353.512 130.3a19.094 19.094 0 0 1 15.363-18.741c8.934-1.786 17.887 2.996 21.379 11.41 3.488 8.418.55 18.129-7.024 23.195-7.574 5.066-17.675 4.078-24.12-2.363a19.01 19.01 0 0 1-5.598-13.5zm-4.282-73.472c0-9.101 6.434-16.937 15.364-18.71 8.93-1.778 17.87 3.003 21.355 11.417 3.48 8.41.54 18.11-7.031 23.168a19.08 19.08 0 0 1-24.098-2.375 19.002 19.002 0 0 1-5.59-13.5zm0 146.942a19.081 19.081 0 0 1 15.356-18.723c8.934-1.777 17.875 3 21.36 11.41a19.084 19.084 0 0 1-7.028 23.176 19.085 19.085 0 0 1-24.098-2.371 19.007 19.007 0 0 1-5.59-13.492zM155.738 316.36h111.903v83.831H155.738zm0 0" fill="#6fe3ff"/><path d="M199.73 106.371l8.2 28.95h-16.41zm0 0" fill="#e48e66"/><path d="M74.148 56.828a19.088 19.088 0 0 1-15.355 18.727c-8.93 1.777-17.875-3-21.36-11.414a19.085 19.085 0 0 1 7.028-23.172c7.57-5.063 17.66-4.067 24.098 2.37a19.005 19.005 0 0 1 5.59 13.49zm0 146.942a19.08 19.08 0 0 1-15.363 18.714c-8.93 1.774-17.87-3.004-21.351-11.418a19.085 19.085 0 0 1 7.027-23.171c7.57-5.055 17.66-4.063 24.098 2.375a18.993 18.993 0 0 1 5.59 13.5zm-4.277-73.47a19.105 19.105 0 0 1-15.363 18.743 19.101 19.101 0 0 1-21.38-11.414 19.1 19.1 0 0 1 7.024-23.195c7.575-5.063 17.672-4.075 24.118 2.367a19.03 19.03 0 0 1 5.601 13.5zm0 0" fill="#6fe3ff"/><path d="M306.84 406.191H121.8c-3.316 0-6-2.687-6-6 0-3.316 2.684-6 6-6h185.04a6 6 0 1 1 0 12zm0 0" fill="#e48e66"/><path d="M353.55 136.3h-58.42v-12h58.383zm-4.288 73.47h-9.043c-14.047 0-25.438-11.391-25.438-25.442-.008-7.418-6.023-13.43-13.441-13.437h-11.692v-12h11.692c14.043.015 25.426 11.394 25.441 25.437 0 7.426 6.016 13.442 13.438 13.442h9.011zM301.34 101.71h-13.078v-12h13.078c7.418-.007 13.433-6.022 13.441-13.44 0-14.047 11.39-25.438 25.438-25.442h9.011l.032 12h-9.043c-7.422.004-13.438 6.02-13.438 13.442-.015 14.043-11.398 25.425-25.441 25.44zM128.25 136.3H69.871l-.043-12h58.422zm-45.09 73.47h-9.012l-.027-12h9.04c7.421 0 13.437-6.016 13.44-13.442.016-14.043 11.395-25.422 25.438-25.437h11.691v12h-11.69c-7.419.007-13.43 6.02-13.438 13.437-.004 14.05-11.391 25.442-25.442 25.442zm51.961-108.06H122.04c-14.043-.015-25.422-11.397-25.437-25.44-.004-7.422-6.02-13.438-13.442-13.442h-9.012l-.027-12h9.04c14.05.004 25.437 11.395 25.44 25.442.008 7.418 6.02 13.433 13.438 13.44h13.082zm0 0" fill="#e2d574"/><path d="M372.605 155.379a25.014 25.014 0 0 1-17.738-7.336c-8.48-8.465-9.8-21.742-3.152-31.711 6.648-9.969 19.414-13.852 30.488-9.273 11.074 4.582 17.371 16.347 15.035 28.101-2.336 11.754-12.648 20.219-24.633 20.219zm-9.253-15.82a13.077 13.077 0 0 0 16.507 1.605 13.076 13.076 0 0 0 4.797-15.875 13.072 13.072 0 0 0-25.144 5.012 12.998 12.998 0 0 0 3.84 9.258zm4.964 89.296c-11.972.004-22.28-8.449-24.62-20.19-2.34-11.74 3.94-23.497 15-28.083 11.058-4.586 23.816-.719 30.468 9.234 6.656 9.954 5.352 23.22-3.113 31.688a24.895 24.895 0 0 1-17.735 7.351zm0-38.167a13.046 13.046 0 0 0-9.254 3.824 13.1 13.1 0 1 0 22.105 6.719 13.098 13.098 0 0 0-12.847-10.547zm0-108.782c-11.96-.008-22.254-8.46-24.578-20.195-2.328-11.734 3.957-23.477 15.012-28.047s23.797-.695 30.438 9.254 5.328 23.203-3.137 31.656a24.978 24.978 0 0 1-17.735 7.332zm0-38.148a13.08 13.08 0 0 0-9.257 22.324v.004a13.083 13.083 0 0 0 21.894-12.633 13.077 13.077 0 0 0-12.644-9.695zM50.773 155.379c-11.964-.008-22.261-8.465-24.59-20.203s3.962-23.485 15.016-28.059c11.059-4.574 23.809-.699 30.453 9.254 6.641 9.953 5.328 23.215-3.14 31.672a25 25 0 0 1-17.739 7.336zm0-38.164a13.093 13.093 0 0 0-5 25.191 13.093 13.093 0 1 0 5-25.191zm4.293 111.64c-11.972.004-22.28-8.449-24.62-20.19-2.34-11.743 3.94-23.5 15-28.087 11.062-4.582 23.82-.715 30.472 9.238 6.652 9.954 5.348 23.22-3.113 31.688a24.911 24.911 0 0 1-17.739 7.351zm0-38.167a13.068 13.068 0 0 0-12.812 10.53 13.072 13.072 0 0 0 23.691 9.805 13.073 13.073 0 0 0-1.62-16.503 13.042 13.042 0 0 0-9.259-3.829zm0-108.782c-11.957-.008-22.242-8.46-24.57-20.191-2.324-11.727 3.961-23.465 15.012-28.035 11.047-4.57 23.785-.696 30.426 9.246C82.57 52.87 81.262 66.12 72.8 74.574a24.978 24.978 0 0 1-17.735 7.332zm0-38.148a13.08 13.08 0 0 0-12.64 9.695 13.083 13.083 0 0 0 21.89 12.633v-.004a13.078 13.078 0 0 0-9.257-22.324zm0 0" fill="#6fe3ff"/><path d="M296.441 130.3c0 2.75-.14 5.528-.421 8.329-4.442 45.035-43.438 78.664-88.633 76.441-45.2-2.222-80.707-39.515-80.707-84.77 0-2.75.14-5.527.422-8.331 4.43-45.043 43.43-78.684 88.632-76.457 45.207 2.222 80.715 39.527 80.707 84.789zm-51.64 25.77v-61.3c0-2.641-3.11-3.782-6.13-3.782-3.112 0-6.132 1.14-6.132 3.782v61.3c0 2.551 3.02 3.871 6.133 3.871 3.02 0 6.129-1.32 6.129-3.87zm-18.762-1.23a4.568 4.568 0 0 0-.187-.942l-18.204-59.32c-.847-2.828-4.34-4.148-7.918-4.148-3.492 0-6.98 1.32-7.832 4.148l-18.207 59.32a5.559 5.559 0 0 0-.18.942c0 3.02 4.43 5.101 7.727 5.101 2.07 0 3.684-.66 4.153-2.46l3.578-12.54h21.601l3.578 12.54c.48 1.8 2.082 2.46 4.16 2.46 3.301 0 7.731-2.171 7.731-5.101zm0 0" fill="#e48e66"/><path d="M244.8 94.77v61.3c0 2.551-3.109 3.871-6.128 3.871-3.113 0-6.133-1.32-6.133-3.87V94.77c0-2.641 3.02-3.782 6.133-3.782 3.02 0 6.129 1.14 6.129 3.782zm-18.948 59.128c.093.309.16.622.187.942 0 2.93-4.43 5.101-7.73 5.101-2.079 0-3.68-.66-4.16-2.46l-3.579-12.54h-21.6l-3.578 12.54c-.47 1.8-2.082 2.46-4.153 2.46-3.297 0-7.726-2.082-7.726-5.101.031-.317.093-.633.18-.942l18.206-59.32c.852-2.828 4.34-4.148 7.832-4.148 3.579 0 7.07 1.32 7.918 4.148zM207.93 135.32l-8.2-28.949-8.21 28.95zm0 0" fill="#f8ec7d"/></svg>