<svg height="108" viewBox="0 -8 423.38 423" width="108" xmlns="http://www.w3.org/2000/svg"><path d="m423.378906 260.410156v26.699219c0 16.15625-13.09375 29.25-29.25 29.25h-364.878906c-16.15625 0-29.25-13.09375-29.25-29.25v-26.699219zm0 0" fill="#e48e66"/><path d="m353.511719 130.300781c-.007813 9.113281 6.425781 16.957031 15.363281 18.742188 8.933594 1.78125 17.886719-2.996094 21.378906-11.414063 3.488282-8.417968.550782-18.128906-7.023437-23.195312-7.574219-5.0625-17.675781-4.074219-24.121094 2.367187-3.589844 3.574219-5.605469 8.433594-5.597656 13.5zm-4.28125-73.472656c-.003907 9.105469 6.425781 16.945313 15.355469 18.726563 8.933593 1.777343 17.875-3 21.359374-11.414063 3.488282-8.410156.542969-18.113281-7.027343-23.171875-7.570313-5.0625-17.660157-4.066406-24.097657 2.371094-3.585937 3.574218-5.597656 8.429687-5.589843 13.488281zm0 146.941406c0 9.105469 6.433593 16.941407 15.363281 18.714844s17.871094-3.003906 21.355469-11.417969c3.480469-8.410156.539062-18.113281-7.03125-23.171875-7.570313-5.054687-17.660157-4.0625-24.097657 2.375-3.585937 3.578125-5.601562 8.433594-5.589843 13.5zm-279.359375-73.46875c.003906-9.113281-6.429688-16.960937-15.363282-18.742187-8.9375-1.785156-17.886718 2.996094-21.378906 11.410156-3.492187 8.417969-.550781 18.128906 7.023438 23.195312 7.574218 5.066407 17.671875 4.078126 24.117187-2.363281 3.589844-3.574219 5.605469-8.433593 5.601563-13.5zm4.277344 73.46875c.003906-9.105469-6.425782-16.945312-15.355469-18.722656-8.929688-1.777344-17.875 3-21.359375 11.410156-3.484375 8.414063-.542969 18.117188 7.027344 23.175781 7.570312 5.058594 17.660156 4.066407 24.097656-2.371093 3.585937-3.574219 5.597656-8.429688 5.589844-13.492188zm0-146.941406c0-9.101563-6.433594-16.9375-15.363282-18.710937-8.929687-1.777344-17.871094 3.003906-21.351562 11.417968-3.484375 8.410156-.542969 18.109375 7.027344 23.167969 7.570312 5.058594 17.660156 4.066406 24.097656-2.375 3.589844-3.574219 5.601562-8.433594 5.589844-13.5zm349.230468-27.386719v230.96875h-423.378906v-230.96875c0-16.15625 13.09375-29.253906 29.25-29.25h364.878906c16.15625-.003906 29.25 13.09375 29.25 29.25zm0 0" fill="#f8ec7d"/><path d="m353.511719 130.300781c-.007813-9.113281 6.425781-16.960937 15.363281-18.742187 8.933594-1.785156 17.886719 2.996094 21.378906 11.410156 3.488282 8.417969.550782 18.128906-7.023437 23.195312-7.574219 5.066407-17.675781 4.078126-24.121094-2.363281-3.589844-3.574219-5.605469-8.433593-5.597656-13.5zm0 0" fill="#6fe3ff"/><path d="m349.230469 56.828125c0-9.101563 6.433593-16.9375 15.363281-18.710937 8.929688-1.777344 17.871094 3.003906 21.355469 11.417968 3.480469 8.410156.539062 18.109375-7.03125 23.167969-7.570313 5.058594-17.660157 4.066406-24.097657-2.375-3.585937-3.574219-5.601562-8.433594-5.589843-13.5zm0 0" fill="#6fe3ff"/><path d="m349.230469 203.769531c-.003907-9.105469 6.425781-16.945312 15.355469-18.722656 8.933593-1.777344 17.875 3 21.359374 11.410156 3.488282 8.414063.542969 18.117188-7.027343 23.175781-7.570313 5.058594-17.660157 4.066407-24.097657-2.371093-3.585937-3.574219-5.597656-8.429688-5.589843-13.492188zm0 0" fill="#6fe3ff"/><path d="m155.738281 316.359375h111.902344v83.832031h-111.902344zm0 0" fill="#6fe3ff"/><path d="m199.730469 106.371094 8.199219 28.949218h-16.410157zm0 0" fill="#e48e66"/><path d="m74.148438 56.828125c.003906 9.105469-6.425782 16.945313-15.355469 18.726563-8.929688 1.777343-17.875-3-21.359375-11.414063-3.484375-8.410156-.542969-18.113281 7.027344-23.171875 7.570312-5.0625 17.660156-4.066406 24.097656 2.371094 3.585937 3.574218 5.597656 8.429687 5.589844 13.488281zm0 0" fill="#6fe3ff"/><path d="m74.148438 203.769531c0 9.105469-6.433594 16.941407-15.363282 18.714844-8.929687 1.773437-17.871094-3.003906-21.351562-11.417969-3.484375-8.410156-.542969-18.113281 7.027344-23.171875 7.570312-5.054687 17.660156-4.0625 24.097656 2.375 3.589844 3.578125 5.601562 8.433594 5.589844 13.5zm0 0" fill="#6fe3ff"/><path d="m69.871094 130.300781c.003906 9.113281-6.429688 16.957031-15.363282 18.742188-8.9375 1.78125-17.886718-2.996094-21.378906-11.414063-3.492187-8.417968-.550781-18.128906 7.023438-23.195312 7.574218-5.0625 17.671875-4.074219 24.117187 2.367187 3.589844 3.574219 5.605469 8.433594 5.601563 13.5zm0 0" fill="#6fe3ff"/><path d="m306.839844 406.191406h-185.039063c-3.316406 0-6-2.6875-6-6 0-3.316406 2.683594-6 6-6h185.039063c3.3125 0 6 2.683594 6 6 0 3.3125-2.6875 6-6 6zm0 0" fill="#e48e66"/><path d="m353.550781 136.300781h-58.421875v-12h58.382813zm0 0" fill="#e2d574"/><path d="m349.261719 209.769531h-9.042969c-14.046875 0-25.4375-11.390625-25.4375-25.441406-.007812-7.417969-6.023438-13.429687-13.441406-13.4375h-11.691406v-12h11.691406c14.042968.015625 25.425781 11.394531 25.441406 25.4375 0 7.425781 6.015625 13.441406 13.4375 13.441406h9.011719zm0 0" fill="#e2d574"/><path d="m301.339844 101.710938h-13.078125v-12h13.078125c7.417968-.007813 13.433594-6.023438 13.441406-13.441407 0-14.046875 11.390625-25.4375 25.4375-25.441406h9.011719l.03125 12h-9.042969c-7.421875.003906-13.4375 6.019531-13.4375 13.441406-.015625 14.042969-11.398438 25.425781-25.441406 25.441407zm0 0" fill="#e2d574"/><path d="m128.25 136.300781h-58.378906l-.042969-12h58.421875zm0 0" fill="#e2d574"/><path d="m83.160156 209.769531h-9.011718l-.027344-12h9.039062c7.421875 0 13.4375-6.015625 13.441406-13.441406.015626-14.042969 11.394532-25.421875 25.4375-25.4375h11.691407v12h-11.691407c-7.417968.007813-13.429687 6.019531-13.4375 13.4375-.003906 14.050781-11.390624 25.441406-25.441406 25.441406zm0 0" fill="#e2d574"/><path d="m135.121094 101.710938h-13.082032c-14.042968-.015626-25.421874-11.398438-25.4375-25.441407-.003906-7.421875-6.019531-13.4375-13.441406-13.441406h-9.011718l-.027344-12h9.039062c14.050782.003906 25.4375 11.394531 25.441406 25.441406.007813 7.417969 6.019532 13.433594 13.4375 13.441407h13.082032zm0 0" fill="#e2d574"/><g fill="#6fe3ff"><path d="m372.605469 155.378906c-6.652344.011719-13.035157-2.628906-17.738281-7.335937-8.480469-8.464844-9.800782-21.742188-3.152344-31.710938 6.648437-9.96875 19.414062-13.851562 30.488281-9.273437 11.074219 4.582031 17.371094 16.347656 15.035156 28.101562-2.335937 11.753906-12.648437 20.21875-24.632812 20.21875zm-9.253907-15.820312c4.414063 4.402344 11.324219 5.074218 16.507813 1.605468 5.179687-3.472656 7.1875-10.117187 4.796875-15.875-2.390625-5.757812-8.511719-9.027343-14.628906-7.808593-6.113282 1.21875-10.515625 6.585937-10.515625 12.820312-.011719 3.472657 1.375 6.808594 3.839843 9.257813zm0 0"/><path d="m368.316406 228.855469c-11.972656.003906-22.28125-8.449219-24.621094-20.191407-2.339843-11.738281 3.941407-23.496093 15-28.082031 11.058594-4.585937 23.816407-.71875 30.46875 9.234375 6.65625 9.953125 5.351563 23.21875-3.113281 31.6875-4.691406 4.722656-11.078125 7.371094-17.734375 7.351563zm0-38.167969c-3.472656-.007812-6.800781 1.371094-9.253906 3.824219-4.421875 4.417969-5.109375 11.34375-1.640625 16.542969 3.472656 5.199218 10.128906 7.222656 15.90625 4.832031s9.058594-8.527344 7.839844-14.65625c-1.21875-6.132813-6.597657-10.546875-12.847657-10.546875zm0 0"/><path d="m368.316406 81.90625c-11.960937-.007812-22.253906-8.460938-24.578125-20.195312-2.328125-11.734376 3.957031-23.476563 15.011719-28.046876 11.054688-4.570312 23.796875-.695312 30.4375 9.253907s5.328125 23.203125-3.136719 31.65625c-4.699219 4.707031-11.082031 7.347656-17.734375 7.332031zm0-38.148438c-5.292968-.003906-10.0625 3.183594-12.089844 8.070313-2.023437 4.886719-.910156 10.511719 2.832032 14.253906v.003907c4.183594 4.191406 10.664062 5.050781 15.796875 2.089843 5.132812-2.960937 7.632812-9 6.097656-14.722656-1.53125-5.722656-6.71875-9.699219-12.644531-9.695313zm0 0"/><path d="m50.773438 155.378906c-11.964844-.007812-22.261719-8.464844-24.589844-20.203125s3.960937-23.484375 15.015625-28.058593c11.058593-4.574219 23.808593-.699219 30.453125 9.253906 6.640625 9.953125 5.328125 23.214844-3.140625 31.671875-4.699219 4.707031-11.082031 7.347656-17.738281 7.335937zm0-38.164062c-6.246094.003906-11.621094 4.417968-12.835938 10.542968-1.21875 6.128907 2.066406 12.261719 7.835938 14.648438 5.773437 2.386719 12.429687.363281 15.894531-4.832031 3.46875-5.199219 2.78125-12.121094-1.640625-16.53125-2.453125-2.457031-5.78125-3.832031-9.253906-3.828125zm0 0"/><path d="m55.066406 228.855469c-11.972656.003906-22.28125-8.449219-24.621094-20.191407-2.339843-11.742187 3.941407-23.5 15-28.085937 11.0625-4.582031 23.820313-.714844 30.472657 9.238281 6.652343 9.953125 5.347656 23.21875-3.113281 31.6875-4.695313 4.722656-11.082032 7.371094-17.738282 7.351563zm0-38.167969c-6.238281.003906-11.601562 4.414062-12.8125 10.53125-1.214844 6.117188 2.0625 12.238281 7.824219 14.621094 5.761719 2.382812 12.40625.367187 15.867187-4.816406 3.464844-5.1875 2.785157-12.09375-1.621093-16.503907-2.453125-2.457031-5.785157-3.835937-9.257813-3.828125zm0 0"/><path d="m55.066406 81.90625c-11.957031-.007812-22.242187-8.460938-24.570312-20.191406-2.324219-11.726563 3.960937-23.464844 15.011718-28.035156 11.046876-4.570313 23.785157-.695313 30.425782 9.246093 6.636718 9.945313 5.328125 23.195313-3.132813 31.648438-4.699219 4.707031-11.082031 7.347656-17.734375 7.332031zm0-38.148438c-5.921875-.003906-11.109375 3.976563-12.640625 9.695313-1.53125 5.722656.96875 11.757813 6.097657 14.71875 5.128906 2.957031 11.609374 2.105469 15.792968-2.085937v-.003907c3.742188-3.742187 4.859375-9.371093 2.832032-14.257812-2.023438-4.886719-6.796876-8.070313-12.089844-8.066407zm0 0"/></g><path d="m296.441406 130.300781c0 2.75-.140625 5.527344-.421875 8.328125-4.441406 45.035156-43.4375 78.664063-88.632812 76.441406-45.199219-2.222656-80.707031-39.515624-80.707031-84.769531 0-2.75.140624-5.527343.421874-8.332031 4.429688-45.042969 43.429688-78.683594 88.632813-76.457031 45.207031 2.222656 80.714844 39.527343 80.707031 84.789062zm-51.640625 25.769531v-61.300781c0-2.640625-3.109375-3.78125-6.128906-3.78125-3.113281 0-6.132813 1.140625-6.132813 3.78125v61.300781c0 2.550782 3.019532 3.871094 6.132813 3.871094 3.019531 0 6.128906-1.320312 6.128906-3.871094zm-18.761719-1.230468c-.027343-.320313-.09375-.632813-.1875-.941406l-18.203124-59.320313c-.847657-2.828125-4.339844-4.148437-7.917969-4.148437-3.492188 0-6.980469 1.320312-7.832031 4.148437l-18.207032 59.320313c-.085937.308593-.148437.625-.179687.941406 0 3.019531 4.429687 5.101562 7.726562 5.101562 2.070313 0 3.683594-.660156 4.152344-2.460937l3.578125-12.539063h21.601562l3.578126 12.539063c.480468 1.800781 2.082031 2.460937 4.160156 2.460937 3.300781 0 7.730468-2.171875 7.730468-5.101562zm0 0" fill="#e48e66"/><path d="m244.800781 94.769531v61.300781c0 2.550782-3.109375 3.871094-6.128906 3.871094-3.113281 0-6.132813-1.320312-6.132813-3.871094v-61.300781c0-2.640625 3.019532-3.78125 6.132813-3.78125 3.019531 0 6.128906 1.140625 6.128906 3.78125zm0 0" fill="#f8ec7d"/><path d="m225.851562 153.898438c.09375.308593.160157.621093.1875.941406 0 2.929687-4.429687 5.101562-7.730468 5.101562-2.078125 0-3.679688-.660156-4.160156-2.460937l-3.578126-12.539063h-21.601562l-3.578125 12.539063c-.46875 1.800781-2.082031 2.460937-4.152344 2.460937-3.296875 0-7.726562-2.082031-7.726562-5.101562.03125-.316406.09375-.632813.179687-.941406l18.207032-59.320313c.851562-2.828125 4.339843-4.148437 7.832031-4.148437 3.578125 0 7.070312 1.320312 7.917969 4.148437zm-17.921874-18.578126-8.199219-28.949218-8.210938 28.949218zm0 0" fill="#f8ec7d"/></svg>